<svg xmlns="http://www.w3.org/2000/svg" version="1.1" xmlns:xlink="http://www.w3.org/1999/xlink" viewBox="0 0 200 200"><rect width="200" height="200" fill="url('#gradient')"></rect><defs><linearGradient id="gradient" gradientTransform="rotate(16 0.5 0.5)"><stop offset="0%" stop-color="#caa98f"></stop><stop offset="100%" stop-color="#f1e4b3"></stop></linearGradient></defs><g><g fill="#644229" transform="matrix(5.418330708661418,0,0,5.418330708661418,16.152698962364013,131.37315025960368)" stroke="#000000" stroke-width="0.45"><path d="M9.98 0L9.15-2.66L4.45-2.66L3.63 0L-0.03 0L5.19-14.22L8.41-14.22L13.66 0L9.98 0ZM6.80-10.23L5.27-5.30L8.33-5.30L6.80-10.23ZM17.10-14.22L17.10 2.64L15.30 2.64L15.30-14.22L17.10-14.22ZM24.48 0L19.80 0L19.80-14.22L24.38-14.22Q26.27-14.22 27.77-13.36Q29.28-12.51 30.12-10.95Q30.97-9.39 30.98-7.46L30.98-7.46L30.98-6.81Q30.98-4.85 30.15-3.31Q29.33-1.76 27.83-0.88Q26.33-0.01 24.48 0L24.48 0ZM24.38-11.57L23.23-11.57L23.23-2.64L24.42-2.64Q25.90-2.64 26.69-3.69Q27.48-4.74 27.48-6.81L27.48-6.81L27.48-7.42Q27.48-9.48 26.69-10.53Q25.90-11.57 24.38-11.57L24.38-11.57Z"></path></g></g></svg>